<svg id="Layer_1" data-name="Layer 1" xmlns="http://www.w3.org/2000/svg" viewBox="0 0 100 100"><defs><style>.cls-1{fill:#2f2cd8;}.cls-2{fill:#0c3;}.cls-3{fill:#fff;}</style></defs><title>favicon</title><rect class="cls-1" width="100" height="100" rx="5.63"/><path class="cls-2" d="M64.51,37.22l-4.18,5.85s-2.52-4.3-10.9-4a18.68,18.68,0,0,0-4.64.72,26,26,0,0,0-10,5.57h0a24.51,24.51,0,0,1,2.5-3.5c2.3-2.73,6.11-6.21,11.13-7.15.35-.07.7-.12,1.06-.16A25.54,25.54,0,0,1,64.51,37.22Z"/><path class="cls-2" d="M32.33,57.39S40,66,50.47,56.83l-6.2,8.64S34.81,67.7,32.33,57.39Z"/><circle class="cls-2" cx="70.22" cy="56.21" r="2.68"/><polygon class="cls-3" points="92.25 65.62 86.25 65.62 70.22 43.24 54.18 65.62 48.18 65.62 67.21 39.05 70.22 34.87 73.22 39.05 92.25 65.62"/><path class="cls-3" d="M44,40.85l-14.32,20-3,4.19-3-4.19L7.75,38.63h6l12.92,18,5.82-8.12a8.87,8.87,0,0,1,1.68-1.78,48.85,48.85,0,0,1,5.25-3.81A19.78,19.78,0,0,1,44,40.85Z"/></svg>